<?xml version="1.0" standalone="no"?>
<!DOCTYPE svg PUBLIC "-//W3C//DTD SVG 20010904//EN"
 "http://www.w3.org/TR/2001/REC-SVG-20010904/DTD/svg10.dtd">
<svg version="1.0" xmlns="http://www.w3.org/2000/svg"
 width="1002.000000pt" height="1002.000000pt" viewBox="0 0 1002.000000 1002.000000"
 preserveAspectRatio="xMidYMid meet">
<metadata>
Created by potrace 1.11, written by Peter Selinger 2001-2013
</metadata>
<g transform="translate(0.000000,1002.000000) scale(0.100000,-0.100000)"
fill="#000000" stroke="none">
<path d="M785 8456 c-40 -17 -84 -63 -101 -103 -12 -27 -14 -500 -14 -2869 l0
-2837 25 -43 c15 -26 43 -54 69 -69 l43 -25 1772 0 c1696 0 1772 -1 1767 -18
-3 -10 -37 -175 -76 -367 -38 -193 -72 -360 -75 -373 -5 -22 -6 -22 -215 -22
l-210 0 0 -135 0 -135 1250 0 1250 0 0 135 0 135 -214 0 -213 0 -77 383 c-42
210 -76 385 -76 390 0 4 794 7 1765 7 1608 0 1769 1 1798 16 45 23 66 44 88
86 19 36 19 110 19 2878 0 2768 0 2842 -19 2878 -22 42 -43 63 -88 86 -29 15
-379 16 -4235 16 -3462 -1 -4208 -3 -4233 -14z m2455 -1946 l0 -40 -195 0
-195 0 0 -130 0 -130 185 0 185 0 0 -40 0 -40 -185 0 -186 0 3 -137 3 -138
193 -3 192 -2 0 -40 0 -40 -240 0 -240 0 0 390 0 390 240 0 240 0 0 -40z m600
-350 l0 -390 -45 0 -45 0 0 50 0 50 -36 -39 c-80 -89 -237 -84 -318 10 -90
105 -89 320 2 421 89 99 221 104 313 13 l39 -39 0 157 0 157 45 0 45 0 0 -390z
m1380 234 l0 -156 27 33 c76 90 230 90 305 1 38 -46 48 -111 48 -317 l0 -185
-45 0 -45 0 0 190 c0 209 -6 240 -56 279 -41 32 -141 27 -180 -9 -51 -48 -54
-65 -54 -270 l0 -190 -45 0 -45 0 0 390 0 390 45 0 45 0 0 -156z m1165 126
c24 -26 13 -68 -22 -81 -53 -20 -98 45 -57 85 21 22 57 20 79 -4z m-2068 -216
c64 -40 102 -110 110 -203 l6 -71 -203 0 -203 0 6 -46 c8 -77 63 -133 140
-141 60 -7 112 12 145 53 22 28 34 34 65 34 43 0 46 -10 16 -60 -49 -80 -148
-118 -259 -98 -73 13 -126 51 -164 118 -29 52 -31 61 -31 160 0 111 15 160 69
218 69 76 211 93 303 36z m602 -2 c63 -51 66 -63 69 -309 l3 -223 -40 0 -41 0
0 178 c-1 207 -7 247 -50 285 -25 22 -40 27 -83 27 -67 0 -112 -27 -137 -83
-17 -36 -20 -66 -20 -224 l0 -183 -40 0 -40 0 0 280 0 280 40 0 40 0 0 -45 0
-45 33 36 c65 71 194 84 266 26z m1158 2 c64 -40 102 -110 110 -203 l6 -71
-203 0 -203 0 6 -46 c8 -77 63 -133 140 -141 60 -7 112 12 145 53 22 28 34 34
65 34 43 0 46 -10 16 -60 -49 -80 -148 -118 -259 -98 -73 13 -126 51 -163 117
-25 45 -31 68 -35 135 -5 94 6 144 47 208 49 78 119 111 219 104 47 -3 75 -11
109 -32z m761 16 c26 -12 50 -33 63 -55 l22 -36 23 34 c28 42 83 69 149 75 69
5 130 -28 162 -88 22 -41 23 -53 23 -262 l0 -218 -45 0 -45 0 0 205 c0 221 -5
247 -51 271 -43 22 -111 18 -144 -8 -49 -38 -55 -70 -55 -278 l0 -190 -45 0
-45 0 0 214 0 214 -31 31 c-25 25 -39 31 -75 31 -54 0 -94 -19 -120 -57 -17
-25 -19 -51 -22 -230 l-3 -203 -40 0 -39 0 0 280 0 280 40 0 40 0 0 -47 0 -48
21 32 c24 38 91 73 139 73 19 0 54 -9 78 -20z m-448 -270 l0 -280 -45 0 -45 0
0 280 0 280 45 0 45 0 0 -280z m-3207 -751 c47 -13 106 -63 123 -106 18 -43
18 -43 -13 -43 -20 1 -34 10 -48 32 -33 52 -69 72 -129 72 -103 0 -161 -73
-161 -204 0 -88 23 -142 75 -177 64 -44 184 -22 216 38 11 22 22 29 44 29 28
0 29 -1 19 -30 -15 -41 -81 -98 -124 -106 -67 -12 -150 0 -193 29 -116 77
-131 308 -27 413 57 57 136 76 218 53z m494 -1 c124 -31 194 -191 149 -342
-33 -110 -108 -161 -231 -154 -60 3 -79 8 -113 32 -134 93 -127 371 11 443 63
33 115 39 184 21z m1005 -15 c34 -20 63 -56 73 -90 6 -20 3 -23 -22 -23 -22 0
-32 8 -44 33 -42 85 -219 61 -219 -29 0 -39 33 -61 139 -94 130 -40 160 -72
152 -159 -7 -77 -72 -121 -176 -121 -79 0 -136 25 -165 73 -27 44 -25 57 8 57
18 0 30 -7 37 -22 24 -54 129 -77 194 -43 42 21 58 55 42 92 -15 37 -29 45
-132 77 -47 14 -97 35 -111 46 -80 62 -49 176 59 216 47 18 123 11 165 -13z
m2347 -2 c42 -22 91 -83 91 -113 0 -13 -8 -18 -30 -18 -21 0 -30 5 -30 16 0
26 -54 72 -99 84 -60 16 -110 3 -153 -39 -44 -44 -62 -105 -55 -183 6 -72 41
-135 87 -160 43 -22 120 -24 161 -3 36 19 69 70 69 108 0 27 0 27 -70 27 -68
0 -70 1 -70 25 l0 25 101 0 102 0 -6 -60 c-11 -124 -82 -190 -205 -190 -74 0
-98 9 -148 52 -52 46 -76 105 -77 192 -2 142 54 227 168 257 45 12 119 3 164
-20z m-2918 -171 c72 -105 136 -193 140 -196 5 -3 9 83 9 190 l0 196 30 0 30
0 0 -250 0 -250 -28 0 c-25 0 -43 21 -168 199 l-139 200 -3 -200 -2 -199 -30
0 -30 0 0 250 0 250 29 0 c27 0 41 -17 162 -190z m789 14 c0 -195 7 -226 59
-257 34 -20 115 -22 151 -4 13 7 35 28 47 46 22 32 23 43 23 212 l0 179 26 0
25 0 -3 -199 c-3 -184 -5 -202 -24 -228 -36 -48 -91 -73 -162 -73 -75 0 -119
17 -155 59 -40 47 -47 90 -47 274 l0 167 30 0 30 0 0 -176z m500 -49 l0 -225
120 0 120 0 0 -25 0 -25 -150 0 -150 0 0 250 0 250 30 0 30 0 0 -225z m580
200 c0 -24 -2 -25 -75 -25 l-75 0 0 -225 0 -225 -30 0 -30 0 0 225 0 225 -80
0 c-79 0 -80 0 -80 25 l0 25 185 0 185 0 0 -25z m130 -225 l0 -250 -30 0 -30
0 0 250 0 250 30 0 30 0 0 -250z m290 60 c73 -105 137 -193 141 -196 5 -3 9
83 9 190 l0 196 30 0 30 0 0 -250 0 -250 -28 0 c-25 0 -43 21 -168 199 l-139
200 -3 -200 -2 -199 -30 0 -30 0 0 250 0 250 29 0 c26 0 41 -17 161 -190z"/>
<path d="M3501 6238 c-51 -34 -73 -79 -79 -159 -11 -162 69 -258 195 -234 135
25 179 267 68 375 -30 29 -43 34 -92 38 -48 3 -64 0 -92 -20z"/>
<path d="M4153 6260 c-50 -11 -79 -35 -102 -83 -38 -79 -42 -77 135 -77 l157
0 -6 37 c-14 85 -100 142 -184 123z"/>
<path d="M5913 6260 c-50 -11 -83 -38 -104 -83 -35 -79 -39 -77 136 -77 149 0
155 1 155 20 0 88 -97 160 -187 140z"/>
<path d="M3555 5245 c-78 -27 -124 -121 -112 -227 13 -106 76 -168 172 -168
97 0 154 63 163 180 5 80 -8 128 -50 176 -27 30 -80 54 -118 54 -8 -1 -33 -7
-55 -15z"/>
</g>
</svg>
